<svg version="1.1" xmlns="http://www.w3.org/2000/svg" width="360" height="360">
<path d="M0 0 C5.83846256 3.02735096 8.81325796 5.6451136 11.375 11.75 C11.73576355 15.0151062 11.73576355 15.0151062 11.71557617 18.58154297 C11.71623329 19.56309105 11.71623329 19.56309105 11.71690369 20.56446838 C11.71482915 22.7073549 11.69156327 24.84943926 11.66796875 26.9921875 C11.662368 28.48576429 11.65810016 29.97934662 11.65510559 31.47293091 C11.64369441 35.38899156 11.61425991 39.30471424 11.58099365 43.22064209 C11.55021194 47.22256906 11.53658301 51.22455106 11.52148438 55.2265625 C11.48938612 63.0678628 11.43823553 70.90888926 11.375 78.75 C6.425 79.74 6.425 79.74 1.375 80.75 C1.045 95.93 0.715 111.11 0.375 126.75 C-2.595 127.08 -5.565 127.41 -8.625 127.75 C-12.78898835 129.73285159 -15.0642307 130.90884605 -17.625 134.75 C-18.07390509 138.26642319 -18.0718255 140.06114402 -16.125 143.0625 C-12.70546978 145.3706829 -9.67531809 146.04133867 -5.625 145.75 C-1.06580989 144.56224983 2.34368714 143.34078426 4.96679688 139.29467773 C6.82318529 134.62184429 6.85252836 130.5230995 6.88671875 125.5390625 C6.90466995 124.57092621 6.92262115 123.60278992 6.94111633 122.60531616 C6.99507795 119.52858773 7.02906989 116.4520132 7.0625 113.375 C7.09568553 111.28253074 7.13017633 109.19008174 7.16601562 107.09765625 C7.25079646 101.98188211 7.31767528 96.86615249 7.375 91.75 C9.355 91.255 9.355 91.255 11.375 90.75 C11.46851098 105.5100643 11.53901224 120.27008929 11.58224869 135.03038979 C11.60285927 141.88413022 11.63095073 148.73768642 11.67675781 155.59130859 C11.72093924 162.2048641 11.74413508 168.81827846 11.75450897 175.43198776 C11.76190231 177.95578398 11.77633962 180.47956967 11.79792023 183.00328445 C11.82693766 186.53708829 11.83095653 190.07010019 11.82910156 193.60400391 C11.84348267 194.64841644 11.85786377 195.69282898 11.87268066 196.76889038 C11.83856857 202.77074494 11.35513991 206.17013413 7.375 210.75 C1.73434636 215.95675721 -2.73906923 216.9756235 -10.22265625 216.91796875 C-12.47787725 216.76028663 -14.4579974 216.37557812 -16.625 215.75 C-16.625 215.09 -16.625 214.43 -16.625 213.75 C-17.223125 213.481875 -17.82125 213.21375 -18.4375 212.9375 C-20.69104393 211.71414758 -22.05358036 210.77039668 -23.625 208.75 C-23.98113097 207.08805547 -24.31708308 205.421549 -24.625 203.75 C-25.285 203.42 -25.945 203.09 -26.625 202.75 C-26.61119094 177.98475857 -26.5689489 153.21970665 -26.49290943 128.45457458 C-26.45826454 116.95553468 -26.43290455 105.45661459 -26.42944336 93.95751953 C-26.42640279 83.93424854 -26.40589957 73.91119096 -26.36447543 63.8880024 C-26.34315241 58.58133545 -26.33054134 53.27497187 -26.33884621 47.96826172 C-26.3463906 42.97111119 -26.33054738 37.97457512 -26.29693985 32.97753716 C-26.28871133 31.14582568 -26.28895104 29.31405306 -26.29840279 27.48234749 C-26.37834841 10.28340361 -26.37834841 10.28340361 -20.625 3.75 C-14.2207959 -1.19215107 -7.68615885 -2.6503996 0 0 Z " fill="#9A01E3" transform="translate(163.625,72.25)"/>
<path d="M0 0 C4.98357378 2.98827074 8.76503039 6.43180991 10.640625 12.05859375 C10.74043454 14.59150531 10.78407217 17.09699491 10.78106689 19.63008118 C10.78403802 20.40836956 10.78700914 21.18665794 10.7900703 21.98853081 C10.79876393 24.60475075 10.8002661 27.22092496 10.80175781 29.8371582 C10.80638551 31.70961607 10.8114101 33.58207299 10.81680298 35.45452881 C10.82993347 40.54756644 10.83637318 45.6405909 10.84081364 50.73364282 C10.84374325 53.91454957 10.84784785 57.09545271 10.85231781 60.27635765 C10.86599431 70.22572256 10.87566028 80.17507923 10.8795197 90.12445289 C10.88400129 101.61506765 10.90155324 113.10556351 10.9305203 124.59614211 C10.95212595 133.47435701 10.96222338 142.35253843 10.96356082 151.23077935 C10.96460963 156.53506201 10.97053358 161.83923292 10.98838043 167.14348793 C11.00484183 172.13310216 11.00702599 177.12252041 10.99824142 182.1121521 C10.99747002 183.94311739 11.00182735 185.77409313 11.01169968 187.60503197 C11.02439169 190.10564041 11.01855753 192.60555184 11.00811768 195.1061554 C11.01617408 195.82980311 11.02423048 196.55345083 11.03253102 197.29902726 C10.97888777 202.79718193 9.68378958 206.88801579 5.88671875 210.921875 C5.28988281 211.40011719 4.69304687 211.87835938 4.078125 212.37109375 C3.47871094 212.86222656 2.87929687 213.35335937 2.26171875 213.859375 C-2.29026574 217.22674666 -7.85718939 217.48793596 -13.359375 217.05859375 C-19.73574694 214.24271943 -23.8159646 210.57469821 -26.359375 204.05859375 C-26.78210317 200.31047221 -26.73852144 196.58907264 -26.69995117 192.82080078 C-26.70060829 191.13699562 -26.70060829 191.13699562 -26.70127869 189.41917419 C-26.69919286 185.71807309 -26.67587066 182.01742798 -26.65234375 178.31640625 C-26.64674709 175.74665576 -26.64247732 173.17690206 -26.63948059 170.60714722 C-26.62920631 164.54050583 -26.6055751 158.47405192 -26.57543212 152.40748107 C-26.54185024 145.49818569 -26.52539262 138.58888235 -26.51034582 131.67952561 C-26.47902427 117.47246094 -26.4262875 103.26553314 -26.359375 89.05859375 C-23.29866566 88.38352309 -20.2355541 87.72004453 -17.171875 87.05859375 C-16.30755859 86.8678125 -15.44324219 86.67703125 -14.55273438 86.48046875 C-13.71162109 86.3 -12.87050781 86.11953125 -12.00390625 85.93359375 C-11.23409424 85.76601562 -10.46428223 85.5984375 -9.67114258 85.42578125 C-7.359375 85.05859375 -7.359375 85.05859375 -2.359375 85.05859375 C-2.359375 95.94859375 -2.359375 106.83859375 -2.359375 118.05859375 C-8.299375 119.04859375 -8.299375 119.04859375 -14.359375 120.05859375 C-17.32561481 121.91976383 -18.8165903 122.97302435 -20.359375 126.05859375 C-20.80020492 130.25514464 -20.80020492 130.25514464 -18.984375 133.87109375 C-14.59334789 137.07992125 -9.59683932 136.59785312 -4.359375 136.05859375 C-0.20777949 134.0192135 1.96901386 132.33696336 3.640625 128.05859375 C3.96650063 125.3120025 3.96650063 125.3120025 3.95947266 122.28027344 C3.97934235 121.11937195 3.99921204 119.95847046 4.01968384 118.76239014 C4.03701065 116.89033905 4.03701065 116.89033905 4.0546875 114.98046875 C4.07405365 113.69875793 4.0934198 112.41704712 4.1133728 111.09649658 C4.16463127 107.6968501 4.20429029 104.2971641 4.24151611 100.89733887 C4.28159541 97.42494988 4.33266978 93.95272442 4.3828125 90.48046875 C4.47949713 83.67329666 4.56392565 76.86601955 4.640625 70.05859375 C3.57118652 70.32631592 2.50174805 70.59403809 1.39990234 70.86987305 C-0.0328756 71.22836089 -1.46565566 71.58684026 -2.8984375 71.9453125 C-3.95043335 72.20870422 -3.95043335 72.20870422 -5.02368164 72.47741699 C-24.01872596 77.22891827 -24.01872596 77.22891827 -26.359375 76.05859375 C-26.45227148 67.70459854 -26.52323882 59.35082104 -26.56662369 50.99643612 C-26.5874519 47.11665979 -26.61568107 43.23723821 -26.66113281 39.35766602 C-26.70476259 35.60993044 -26.72854793 31.86253495 -26.73888397 28.1145649 C-26.74624482 26.68846856 -26.76061886 25.26238972 -26.78229523 23.83643913 C-26.98620667 9.85985667 -26.98620667 9.85985667 -22.359375 4.05859375 C-15.8508526 -0.98883178 -7.95407648 -3.17372919 0 0 Z " fill="#9901E3" transform="translate(210.359375,71.94140625)"/>
<path d="M0 0 C4.36196139 3.93128672 6.71667333 8.4364331 7.1847477 14.32368088 C7.26749354 17.1933381 7.28161404 20.05639207 7.2746582 22.92724609 C7.27976913 24.01742538 7.28488007 25.10760468 7.29014587 26.2308197 C7.30402613 29.82841509 7.30308618 33.42581855 7.30078125 37.0234375 C7.30466914 39.5291857 7.30900401 42.03493324 7.31376648 44.54067993 C7.32122541 49.7911339 7.32107853 55.04153837 7.31567383 60.29199219 C7.30963721 66.34618977 7.32194095 72.40015477 7.3432439 78.45431268 C7.36303599 84.295578 7.36602743 90.13675272 7.36250877 95.97804642 C7.36302145 98.45550711 7.36824918 100.93297156 7.37832069 103.41041183 C7.3906887 106.87844384 7.38389055 110.34594107 7.37231445 113.81396484 C7.38378006 115.34163231 7.38378006 115.34163231 7.39547729 116.90016174 C7.34215863 124.14526055 6.45768898 129.91033386 1.8125 135.75 C-4.29500991 140.63600793 -9.15330247 142.66497437 -17 142 C-17.99 141.67 -18.98 141.34 -20 141 C-20 140.34 -20 139.68 -20 139 C-21.11375 138.62875 -21.11375 138.62875 -22.25 138.25 C-26.65301837 136.24862801 -29.16356327 133.42924059 -31 129 C-31.26285553 126.64045334 -31.26285553 126.64045334 -31.28088379 123.97918701 C-31.29230408 122.96713699 -31.30372437 121.95508698 -31.31549072 120.91236877 C-31.31772644 119.80787888 -31.31996216 118.70338898 -31.32226562 117.56542969 C-31.33219543 116.39751389 -31.34212524 115.22959808 -31.35235596 114.02629089 C-31.38159307 110.15812837 -31.3952023 106.29012991 -31.40625 102.421875 C-31.41172317 101.08724113 -31.41743607 99.75260821 -31.42338562 98.41797638 C-31.45072259 92.14636271 -31.47006135 85.87480112 -31.4777894 79.60313201 C-31.48674383 72.37697788 -31.5218111 65.15158172 -31.57979059 57.92565799 C-31.62311053 52.33142782 -31.64320254 46.73741021 -31.64587164 41.14301419 C-31.64796208 37.80565385 -31.66256598 34.46957186 -31.69551086 31.13228607 C-31.72967792 27.40499206 -31.72586195 23.67953615 -31.71289062 19.95214844 C-31.73132019 18.85575546 -31.74974976 17.75936249 -31.76873779 16.62974548 C-31.69028284 9.42171422 -30.18698104 5.10375997 -25 0 C-17.12312963 -5.81388051 -7.91861557 -5.49385748 0 0 Z " fill="#6F43EB" transform="translate(259,111)"/>
<path d="M0 0 C4.31633181 3.18586395 7.91120739 6.79612218 9.625 11.9375 C9.72066357 13.53536529 9.75990267 15.1369083 9.76544189 16.73762512 C9.77115204 17.72594833 9.77686218 18.71427155 9.78274536 19.73254395 C9.78386322 20.81571899 9.78498108 21.89889404 9.78613281 23.01489258 C9.79358017 24.72747505 9.79358017 24.72747505 9.80117798 26.47465515 C9.81581089 30.26045326 9.82260347 34.04620948 9.828125 37.83203125 C9.83387547 40.45895896 9.83963321 43.08588665 9.84539795 45.71281433 C9.85496859 50.5201227 9.86086583 55.32742202 9.8638947 60.13473874 C9.86837377 67.20446619 9.88591571 74.27400014 9.9148953 81.34366876 C9.93914055 87.47164898 9.94684019 93.59954947 9.94857025 99.7275753 C9.95159909 102.3322931 9.95963535 104.93701003 9.97275543 107.54169655 C9.98979839 111.18525498 9.98793963 114.82834177 9.98144531 118.47192383 C9.99526749 120.08757736 9.99526749 120.08757736 10.0093689 121.73587036 C9.96880517 128.99608107 8.48814802 133.0879795 4.5 139.1875 C0.19931626 143.30119749 -3.87786708 143.89656366 -9.7109375 143.96484375 C-15.18523445 143.60051341 -18.8197444 141.94203029 -23.375 138.9375 C-23.375 138.2775 -23.375 137.6175 -23.375 136.9375 C-24.035 136.9375 -24.695 136.9375 -25.375 136.9375 C-28.62202933 130.78420657 -28.80873485 125.53554161 -28.77905273 118.65307617 C-28.78591599 117.53670273 -28.79277924 116.42032928 -28.79985046 115.27012634 C-28.81810871 111.59011003 -28.81428152 107.91052052 -28.80859375 104.23046875 C-28.81315657 101.66367962 -28.81846245 99.09689172 -28.82447815 96.53010559 C-28.83340783 91.15274504 -28.83122335 85.77554729 -28.82104492 80.39819336 C-28.80957794 74.20363665 -28.82362048 68.00951362 -28.8504414 61.81501406 C-28.87536528 55.83222727 -28.87775979 49.84966172 -28.87132454 43.86681557 C-28.87117157 41.33239331 -28.87719534 38.79796261 -28.88961601 36.26357079 C-28.90456718 32.71209279 -28.8938166 29.16155685 -28.87670898 25.61010742 C-28.88637695 24.57237183 -28.89604492 23.53463623 -28.90600586 22.4654541 C-28.8386572 15.7562106 -27.87424957 9.77612327 -24.375 3.9375 C-17.46747036 -2.21300728 -8.60444723 -2.70880746 0 0 Z " fill="#6256ED" transform="translate(121.375,109.0625)"/>
<path d="M0 0 C6.18529813 0.58907601 10.00120746 2.89016343 14.25 7.375 C18.40713881 13.61070821 18.2921977 19.68824859 18.2746582 26.92724609 C18.2823246 28.56251503 18.2823246 28.56251503 18.29014587 30.2308197 C18.30402613 33.82841509 18.30308618 37.42581855 18.30078125 41.0234375 C18.30466914 43.5291857 18.30900401 46.03493324 18.31376648 48.54067993 C18.32122541 53.7911339 18.32107853 59.04153837 18.31567383 64.29199219 C18.30963721 70.34618977 18.32194095 76.40015477 18.3432439 82.45431268 C18.36303599 88.295578 18.36602743 94.13675272 18.36250877 99.97804642 C18.36302145 102.45550711 18.36824918 104.93297156 18.37832069 107.41041183 C18.3906887 110.87844384 18.38389055 114.34594107 18.37231445 117.81396484 C18.38378006 119.34163231 18.38378006 119.34163231 18.39547729 120.90016174 C18.34215863 128.14526055 17.45768898 133.91033386 12.8125 139.75 C9.49746935 142.40202452 6.06822564 144.68931643 2 146 C1.01 145.67 0.02 145.34 -1 145 C-1.02333553 126.38965958 -1.0409824 107.77932211 -1.05181217 89.16897011 C-1.05697373 80.52833188 -1.06401379 71.88770272 -1.07543945 63.24707031 C-1.08539054 55.71801001 -1.09185445 48.18895628 -1.09408849 40.65988958 C-1.09539488 36.67141047 -1.09847618 32.68295017 -1.10573006 28.69447708 C-1.11249696 24.94351828 -1.11461558 21.19258611 -1.11310768 17.44162178 C-1.11338371 16.06211134 -1.11538487 14.68260004 -1.11920547 13.30309486 C-1.12415308 11.42518374 -1.12239512 9.54725846 -1.12025452 7.66934204 C-1.12117631 6.61665445 -1.1220981 5.56396687 -1.12304783 4.47937965 C-1 2 -1 2 0 0 Z " fill="#1CC6FA" transform="translate(248,107)"/>
<path d="M0 0 C0.17307616 13.16658766 0.33941261 26.33325403 0.5 39.5 C0.51781588 40.96025982 0.51781588 40.96025982 0.53599167 42.45001984 C0.93865481 75.63559741 1.13948195 108.81188012 1 142 C1.99 142.33 2.98 142.66 4 143 C3 144 3 144 1.1796875 144.01953125 C-4.54532302 143.50525064 -8.20090343 142.16536157 -13 139 C-13 138.34 -13 137.68 -13 137 C-13.66 137 -14.32 137 -15 137 C-18.24702933 130.84670657 -18.43373485 125.59804161 -18.40405273 118.71557617 C-18.41091599 117.59920273 -18.41777924 116.48282928 -18.42485046 115.33262634 C-18.44310871 111.65261003 -18.43928152 107.97302052 -18.43359375 104.29296875 C-18.43815657 101.72617962 -18.44346245 99.15939172 -18.44947815 96.59260559 C-18.45840783 91.21524504 -18.45622335 85.83804729 -18.44604492 80.46069336 C-18.43457794 74.26613665 -18.44862048 68.07201362 -18.4754414 61.87751406 C-18.50036528 55.89472727 -18.50275979 49.91216172 -18.49632454 43.92931557 C-18.49617157 41.39489331 -18.50219534 38.86046261 -18.51461601 36.32607079 C-18.52956718 32.77459279 -18.5188166 29.22405685 -18.50170898 25.67260742 C-18.51137695 24.63487183 -18.52104492 23.59713623 -18.53100586 22.5279541 C-18.46252548 15.70596894 -17.26450673 10.04583486 -14 4 C-11.81640625 1.89453125 -11.81640625 1.89453125 -9.5625 0.8125 C-8.82128906 0.42707031 -8.08007812 0.04164062 -7.31640625 -0.35546875 C-4.53058218 -1.13061373 -2.78370904 -0.63857656 0 0 Z " fill="#20BFF9" transform="translate(111,109)"/>
<path d="M0 0 C5.21285484 3.67966224 7.54996947 7.12622238 9.1875 13.25 C9.4765486 16.34273309 9.49164685 19.41871999 9.48828125 22.5234375 C9.49256638 23.40601227 9.4968515 24.28858704 9.50126648 25.19790649 C9.50699028 27.05868678 9.50752447 28.91948943 9.50317383 30.78027344 C9.50001772 33.60911732 9.52348387 36.43691045 9.54882812 39.265625 C9.55110189 41.08072786 9.55180426 42.8958335 9.55078125 44.7109375 C9.559991 45.54764984 9.56920074 46.38436218 9.57868958 47.24642944 C9.53022922 53.47732659 8.62993221 59.23983536 4.57421875 64.23828125 C-4.47234655 71.28836317 -4.47234655 71.28836317 -10.625 71.1875 C-12.02993586 70.91886982 -13.42646977 70.60345033 -14.8125 70.25 C-15.95138672 69.97929687 -15.95138672 69.97929687 -17.11328125 69.703125 C-21.95572275 68.1079678 -24.53971911 65.8764758 -27.0390625 61.4375 C-30.98405573 53.09617427 -30.71471073 44.54710049 -30.59472656 35.4675293 C-30.56243391 32.55654211 -30.59459922 29.65105722 -30.6328125 26.74023438 C-30.67027805 10.01930725 -30.67027805 10.01930725 -25.45263672 3.71362305 C-18.06709355 -2.87707825 -8.93799942 -4.75794366 0 0 Z " fill="#02ECFE" transform="translate(301.8125,145.75)"/>
<path d="M0 0 C3.68181996 2.633524 5.92493569 6.10653208 7.6875 10.20703125 C7.94819641 12.39401245 7.94819641 12.39401245 7.9621582 14.78857422 C7.97645622 16.14050369 7.97645622 16.14050369 7.99104309 17.51974487 C7.99013168 18.48647125 7.98922028 19.45319763 7.98828125 20.44921875 C7.99256638 21.45034698 7.9968515 22.45147522 8.00126648 23.48294067 C8.00700585 25.59945927 8.00751294 27.7159976 8.00317383 29.83251953 C8.00001842 33.06316998 8.02346257 36.29290054 8.04882812 39.5234375 C8.05110167 41.5820301 8.05180436 43.64062515 8.05078125 45.69921875 C8.059991 46.66189667 8.06920074 47.62457458 8.07868958 48.61642456 C8.03636471 54.78353723 7.28014529 59.20366987 3.109375 64.03515625 C-1.59885995 68.03935607 -5.5512276 70.4321585 -11.98828125 70.046875 C-18.25011157 69.17411651 -22.03838633 67.89813162 -26.3125 63.20703125 C-30.42250835 57.35166394 -30.92773139 52.83993127 -30.9140625 45.77734375 C-30.92263275 44.78757538 -30.931203 43.79780701 -30.94003296 42.77804565 C-30.9514771 40.69206795 -30.95255137 38.60601047 -30.94384766 36.52001953 C-30.93753156 33.3478822 -30.98446849 30.17948863 -31.03515625 27.0078125 C-31.0397036 24.97266091 -31.04110859 22.93749939 -31.0390625 20.90234375 C-31.05748199 19.96456085 -31.07590149 19.02677795 -31.09487915 18.06057739 C-30.99809509 11.08641341 -28.98670143 6.41793189 -24.3125 1.20703125 C-16.93473591 -4.39439666 -7.96891988 -4.54678292 0 0 Z " fill="#02EDFE" transform="translate(78.3125,146.79296875)"/>
<path d="M0 0 C5.75 0.875 5.75 0.875 8 2 C7.9861995 20.18480158 7.94399927 38.36930425 7.86790943 56.55395126 C7.83324367 64.99725997 7.80790185 73.44040515 7.80444336 81.88378906 C7.80140565 89.242338 7.78094151 96.60059583 7.73947543 103.9590323 C7.71812579 107.8560234 7.70555465 111.75260044 7.71384621 115.64965057 C7.72137431 119.31722071 7.70561593 122.98395104 7.67193985 126.65136719 C7.65975595 128.64012493 7.67231277 130.62898589 7.68556213 132.61773682 C7.67027466 133.80121704 7.65498718 134.98469727 7.63923645 136.20404053 C7.63647107 137.2327615 7.63370569 138.26148247 7.63085651 139.3213768 C7 142 7 142 4.64754772 144.42474747 C3.77385697 144.9445808 2.90016623 145.46441414 2 146 C1.01 145.67 0.02 145.34 -1 145 C-1.02333553 126.38965958 -1.0409824 107.77932211 -1.05181217 89.16897011 C-1.05697373 80.52833188 -1.06401379 71.88770272 -1.07543945 63.24707031 C-1.08539054 55.71801001 -1.09185445 48.18895628 -1.09408849 40.65988958 C-1.09539488 36.67141047 -1.09847618 32.68295017 -1.10573006 28.69447708 C-1.11249696 24.94351828 -1.11461558 21.19258611 -1.11310768 17.44162178 C-1.11338371 16.06211134 -1.11538487 14.68260004 -1.11920547 13.30309486 C-1.12415308 11.42518374 -1.12239512 9.54725846 -1.12025452 7.66934204 C-1.12117631 6.61665445 -1.1220981 5.56396687 -1.12304783 4.47937965 C-1 2 -1 2 0 0 Z " fill="#3799F5" transform="translate(248,107)"/>
<path d="M0 0 C4.17406717 3.17592068 6.28439328 4.94621719 8 10 C8.25447559 12.441329 8.25447559 12.441329 8.26069641 15.04063416 C8.26778122 16.0317067 8.27486603 17.02277924 8.28216553 18.04388428 C8.27968811 19.11986877 8.27721069 20.19585327 8.2746582 21.30444336 C8.27976913 22.44645706 8.28488007 23.58847076 8.29014587 24.76509094 C8.30404575 28.54006186 8.30308483 32.31485029 8.30078125 36.08984375 C8.30466782 38.71391366 8.30900241 41.33798293 8.31376648 43.96205139 C8.3219739 49.46226622 8.32107504 54.96242966 8.31567383 60.46264648 C8.30963369 66.81280609 8.32194823 73.16274415 8.3432439 79.51286596 C8.36300499 85.63125287 8.3660312 91.74953641 8.36250877 97.86795235 C8.36302235 100.46708255 8.36826685 103.06621626 8.37832069 105.66532707 C8.39065207 109.29911259 8.38391272 112.93238485 8.37231445 116.56616211 C8.37995819 117.64012238 8.38760193 118.71408264 8.39547729 119.82058716 C8.35691011 125.28536001 8.16141519 129.32174374 5 134 C2.3125 136.375 2.3125 136.375 0 138 C-0.65457261 103.80647414 -1.10830159 69.61879713 -1.12338257 35.4185791 C-1.1250043 32.99356691 -1.12856599 30.56856402 -1.13256836 28.14355469 C-1.13837562 24.3266168 -1.1386817 20.50971905 -1.13431931 16.69277954 C-1.1333215 15.28211488 -1.13391251 13.87144813 -1.13615799 12.46078491 C-1.13868363 10.53765903 -1.13424472 8.61452768 -1.12939453 6.69140625 C-1.12859894 5.61060791 -1.12780334 4.52980957 -1.12698364 3.41625977 C-1 1 -1 1 0 0 Z " fill="#7932E9" transform="translate(123,111)"/>
<path d="M0 0 C0.33 44.22 0.66 88.44 1 134 C-2 134 -2 134 -3.5625 132.75 C-6.43336598 129.25503272 -7.25021687 126.4620406 -7.26069641 121.95899963 C-7.26778122 120.94261414 -7.27486603 119.92622864 -7.28216553 118.87904358 C-7.27968811 117.76984055 -7.27721069 116.66063751 -7.2746582 115.51782227 C-7.27976913 114.34508759 -7.28488007 113.17235291 -7.29014587 111.96408081 C-7.30166285 108.75122624 -7.30411567 105.53853168 -7.30158257 102.3256619 C-7.30051219 99.64176836 -7.30539795 96.95789857 -7.310188 94.27401012 C-7.32127978 87.941363 -7.32172245 81.60877519 -7.31567383 75.27612305 C-7.3096334 68.74703505 -7.3219474 62.21816253 -7.3432439 55.68911129 C-7.36086691 50.07964314 -7.36686016 44.47024352 -7.36360615 38.86074871 C-7.36179426 35.51213817 -7.36441996 32.16368133 -7.37832069 28.8150959 C-7.39063506 25.08041838 -7.38392295 21.34624157 -7.37231445 17.61157227 C-7.37995819 16.50439346 -7.38760193 15.39721466 -7.39547729 14.25648499 C-7.32953438 4.67473848 -7.32953438 4.67473848 -4 1 C-1 0 -1 0 0 0 Z " fill="#8421E7" transform="translate(235,113)"/>
<path d="M0 0 C0.17307616 13.16658766 0.33941261 26.33325403 0.5 39.5 C0.51187725 40.47350655 0.5237545 41.44701309 0.53599167 42.45001984 C0.93865481 75.63559741 1.13948195 108.81188012 1 142 C1.99 142.33 2.98 142.66 4 143 C3 144 3 144 0.625 144.1875 C-2 144 -2 144 -5 142 C-5.39872742 139.84121704 -5.39872742 139.84121704 -5.43237305 137.10400391 C-5.45216217 136.06539215 -5.47195129 135.0267804 -5.49234009 133.95669556 C-5.49873505 132.80825165 -5.50513 131.65980774 -5.51171875 130.4765625 C-5.52971527 129.26374603 -5.54771179 128.05092957 -5.56625366 126.80136108 C-5.61216448 123.44570515 -5.64425835 120.09045731 -5.66975784 116.73461914 C-5.69343155 113.91971301 -5.72812752 111.10498576 -5.76267529 108.29019547 C-6.19275889 72.86302895 -6.09712652 37.42893434 -6 2 C-6.66 2 -7.32 2 -8 2 C-8 1.34 -8 0.68 -8 0 C-4.71023192 -1.09658936 -3.28696233 -0.79953138 0 0 Z " fill="#3D90F4" transform="translate(111,109)"/>
<path d="M0 0 C1.65 0 3.3 0 5 0 C4.67 47.85 4.34 95.7 4 145 C-1 146 -1 146 -4 144 C-3.34 144 -2.68 144 -2 144 C-2.00523682 142.78417236 -2.01047363 141.56834473 -2.01586914 140.31567383 C-2.03399624 135.79631285 -2.04546021 131.27695508 -2.05493164 126.75756836 C-2.05995422 124.80313577 -2.06677349 122.84870694 -2.07543945 120.89428711 C-2.08759589 118.08185907 -2.09324913 115.26948081 -2.09765625 112.45703125 C-2.10281754 111.58601273 -2.10797882 110.7149942 -2.11329651 109.81758118 C-2.11340981 108.58687141 -2.11340981 108.58687141 -2.11352539 107.33129883 C-2.115746 106.61404129 -2.11796661 105.89678375 -2.12025452 105.15779114 C-2 103 -2 103 -1.49900818 100.82029724 C-0.77442456 96.72509147 -0.87818223 92.69442769 -0.90234375 88.54394531 C-0.90380402 87.59872513 -0.90526428 86.65350494 -0.9067688 85.67964172 C-0.91056767 83.63239264 -0.91667672 81.58514682 -0.92483521 79.53791046 C-0.93760011 76.30275312 -0.94411425 73.06763675 -0.94897461 69.8324585 C-0.96039726 62.97162056 -0.97965747 56.11081652 -1 49.25 C-1.02355711 41.28728229 -1.04394812 33.32458354 -1.05593872 25.36183929 C-1.06244843 22.165944 -1.07495351 18.97010683 -1.08764648 15.77423096 C-1.09127655 13.82898002 -1.09462859 11.88372853 -1.09765625 9.93847656 C-1.10282257 9.04290543 -1.10798889 8.14733429 -1.11331177 7.22462463 C-1.11349231 5.14940601 -1.06247724 3.07427794 -1 1 C-0.67 0.67 -0.34 0.34 0 0 Z " fill="#5965EF" transform="translate(243,107)"/>
<path d="M0 0 C1.32 0.33 2.64 0.66 4 1 C5.27615129 4.92622353 5.16677062 8.88796127 5.18945312 12.9699707 C5.19776626 13.77369047 5.20607939 14.57741024 5.21464443 15.40548515 C5.24126436 18.07889542 5.26118211 20.75231443 5.28125 23.42578125 C5.29904389 25.31220451 5.31732814 27.1986232 5.33607483 29.08503723 C5.37514567 33.08786204 5.41156784 37.09069806 5.4458313 41.09356689 C5.53435673 51.38931341 5.6402444 61.68488824 5.74609375 71.98046875 C5.75633009 72.9895932 5.76656643 73.99871765 5.77711296 75.03842163 C5.94415148 91.40307445 6.18436471 107.76367757 6.5625 124.125 C6.58473633 125.0899942 6.60697266 126.0549884 6.62988281 127.04922485 C6.74619484 132.03301062 6.86890179 137.01658179 7 142 C4 143 4 143 1 142 C0.21576263 107.26755183 -0.09429557 72.55313648 -0.0625 37.8125 C-0.06164398 36.87050625 -0.06078796 35.9285125 -0.05990601 34.95797348 C-0.04852886 23.30529598 -0.02847227 11.65264809 0 0 Z " fill="#5866EF" transform="translate(111,109)"/>
<path d="M0 0 C0.99 0.33 1.98 0.66 3 1 C3.17324916 13.83325014 3.33956456 26.66658321 3.5 39.5 C3.51187725 40.44975204 3.5237545 41.39950409 3.53599167 42.3780365 C3.94482358 75.2543511 4.13703078 108.1210456 4 141 C4.66 141.33 5.32 141.66 6 142 C4.02 141.67 2.04 141.34 0 141 C-1.32231002 137.03306995 -1.09521571 133.25593378 -1.05102539 129.1237793 C-1.04116898 127.29796777 -1.03217217 125.47215143 -1.0239563 123.64633179 C-1.01886677 122.7076614 -1.01377724 121.76899101 -1.00853348 120.80187607 C-0.99530497 116.45843715 -1.03278167 112.11589836 -1.07592773 107.77270508 C-1.08414079 106.91092494 -1.09235384 106.0491448 -1.10081577 105.16125011 C-1.12733963 102.44733187 -1.1552905 99.73343149 -1.18359375 97.01953125 C-1.19337816 96.06511328 -1.20316257 95.1106953 -1.21324348 94.12735558 C-1.26506836 89.07992629 -1.31814895 84.03251211 -1.37231445 78.98510742 C-1.41617784 74.87900661 -1.45778046 70.7728928 -1.49731445 66.66674805 C-1.54577535 61.63933819 -1.59720309 56.61196929 -1.65172195 51.58462143 C-1.6728865 49.63224753 -1.6934979 47.67986755 -1.71354294 45.72748184 C-1.84422435 33.3789313 -2.06652554 21.05465017 -2.93663025 8.7311554 C-2.98856033 7.84751816 -3.04049042 6.96388092 -3.09399414 6.0534668 C-3.14801895 5.30816208 -3.20204376 4.56285736 -3.25770569 3.79496765 C-3.17266281 3.20262833 -3.08761993 2.610289 -3 2 C-2.01 1.34 -1.02 0.68 0 0 Z " fill="#2BABF7" transform="translate(102,110)"/>
<path d="M0 0 C2 1 2 1 3 3 C3.09742865 4.73720566 3.13069139 6.4781609 3.13371277 8.21809387 C3.13797775 9.32428574 3.14224274 10.4304776 3.14663696 11.57019043 C3.14595718 13.39906799 3.14595718 13.39906799 3.14526367 15.26489258 C3.15030159 17.18449043 3.15030159 17.18449043 3.15544128 19.14286804 C3.16429213 22.65950686 3.16661989 26.17612136 3.16725707 29.69277024 C3.16820569 32.62757458 3.17188358 35.56237324 3.17542917 38.4971754 C3.18357838 45.42235488 3.18601303 52.34752135 3.18530273 59.27270508 C3.18470229 66.41631512 3.19524636 73.55984957 3.2110464 80.70344049 C3.22412511 86.83514665 3.22948647 92.96682811 3.22884732 99.09854811 C3.22859237 102.76126522 3.23144201 106.42391521 3.24202538 110.08661842 C3.25351107 114.17343935 3.2489575 118.26009123 3.24291992 122.34692383 C3.24853943 123.56010284 3.25415894 124.77328186 3.25994873 126.02322388 C3.253657 127.69520088 3.253657 127.69520088 3.24723816 129.4009552 C3.24778293 130.36716199 3.24832769 131.33336878 3.24888897 132.32885456 C2.97693635 135.24752553 2.32514934 137.38988095 1 140 C-1.125 140.8125 -1.125 140.8125 -3 141 C-2.505 140.01 -2.505 140.01 -2 139 C-1.89678368 137.17795792 -1.85778141 135.35214615 -1.84851074 133.52720642 C-1.84016708 132.36474899 -1.83182343 131.20229156 -1.82322693 130.00460815 C-1.8169503 128.08214767 -1.8169503 128.08214767 -1.81054688 126.12084961 C-1.80260682 124.76258588 -1.79421906 123.4043247 -1.78541565 122.04606628 C-1.76734225 119.1180743 -1.75233266 116.190088 -1.73963928 113.26206779 C-1.71945089 108.63671629 -1.69179519 104.01142825 -1.66296387 99.38612366 C-1.59771358 88.73402003 -1.54229509 78.0818694 -1.48697662 67.42971039 C-1.43617879 57.66621212 -1.38333523 47.9027369 -1.32245111 38.13929564 C-1.29403551 33.53665043 -1.27046384 28.93401291 -1.25052643 24.3313235 C-1.23717776 21.47416738 -1.21976362 18.61704677 -1.20121574 15.75992012 C-1.18970764 13.7932513 -1.18318398 11.82655532 -1.17677307 9.85986328 C-1.16842941 8.70022568 -1.16008575 7.54058807 -1.15148926 6.34580994 C-1.14633553 5.33166991 -1.14118179 4.31752989 -1.13587189 3.27265835 C-1 1 -1 1 0 0 Z " fill="#28AFF8" transform="translate(256,110)"/>
<path d="M0 0 C0.99 0.33 1.98 0.66 3 1 C3.02347118 17.00437139 3.04104846 33.00873711 3.05181217 49.0131216 C3.05694515 56.44600949 3.06392995 63.87888661 3.07543945 71.31176758 C3.0854787 77.79830387 3.09187517 84.28483235 3.09408849 90.77137619 C3.09538008 94.19862686 3.09836562 97.62585523 3.10573006 101.05309868 C3.1324972 115.07134113 3.11532845 129.0189141 2 143 C1.01 143.33 0.02 143.66 -1 144 C-1.02332793 125.37238885 -1.04097865 106.74478065 -1.05181217 88.11715794 C-1.05697536 79.46864395 -1.06401848 70.82013903 -1.07543945 62.17163086 C-1.08538561 54.63635421 -1.09185326 47.10108412 -1.09408849 39.56580108 C-1.09539572 35.57344148 -1.0984823 31.58110064 -1.10573006 27.58874702 C-1.1124892 23.83532902 -1.11461718 20.08193761 -1.11310768 16.3285141 C-1.11338406 14.94697106 -1.11538981 13.56542719 -1.11920547 12.18388939 C-1.12414099 10.30562855 -1.12239796 8.42735362 -1.12025452 6.54908752 C-1.12117631 5.49547814 -1.1220981 4.44186876 -1.12304783 3.35633183 C-1 1 -1 1 0 0 Z " fill="#4583F3" transform="translate(248,108)"/>
<path d="M0 0 C0.99 0 1.98 0 3 0 C3.97309641 2.91928922 4.12350964 4.76550264 4.12025452 7.80253601 C4.12162918 8.79111603 4.12300385 9.77969604 4.12442017 10.79823303 C4.12082489 11.88148361 4.11722961 12.96473419 4.11352539 14.08081055 C4.11367142 15.22241638 4.11381744 16.36402222 4.1139679 17.54022217 C4.11326993 21.32240687 4.10548291 25.10454263 4.09765625 28.88671875 C4.09579166 31.5055997 4.09436795 34.124481 4.09336853 36.74336243 C4.09025953 42.93752367 4.08205194 49.13166727 4.07201904 55.32582074 C4.06084454 62.37774885 4.05534408 69.4296778 4.05032361 76.48161256 C4.03986898 90.98775081 4.02227786 105.49387516 4 120 C2.515 120.495 2.515 120.495 1 121 C0.1968718 91.64310098 -0.09341179 62.30370495 -0.0625 32.9375 C-0.06164398 32.11848206 -0.06078796 31.29946411 -0.05990601 30.45562744 C-0.04850782 20.30372869 -0.02842035 10.15186583 0 0 Z " fill="#861FE7" transform="translate(127,118)"/>
<path d="M0 0 C1.32 0.33 2.64 0.66 4 1 C4 47.53 4 94.06 4 142 C2.68 141.67 1.36 141.34 0 141 C0 94.47 0 47.94 0 0 Z " fill="#6C46EC" transform="translate(119,109)"/>
<path d="M0 0 C0.33 44.22 0.66 88.44 1 134 C-2 134 -2 134 -3.625 132.6875 C-5 131 -5 131 -6 128 C-5.34 128 -4.68 128 -4 128 C-4 88.07 -4 48.14 -4 7 C-4.66 6.67 -5.32 6.34 -6 6 C-5.1875 3.5625 -5.1875 3.5625 -4 1 C-1 0 -1 0 0 0 Z " fill="#7B30E9" transform="translate(235,113)"/>
<path d="M0 0 C0.99 0 1.98 0 3 0 C3.0231211 12.89072255 3.04091389 25.7814402 3.05181217 38.67217922 C3.05704151 44.65719266 3.06414008 50.64219196 3.07543945 56.62719727 C3.08626653 62.39783429 3.09227645 68.16845768 3.09487724 73.93910408 C3.09673182 76.14602943 3.10035304 78.352954 3.10573006 80.55987358 C3.1129381 83.63946041 3.11399104 86.71899014 3.11352539 89.79858398 C3.11712067 90.72071182 3.12071594 91.64283966 3.12442017 92.59291077 C3.11405216 98.88594784 3.11405216 98.88594784 2 100 C1.83970312 102.95529504 1.74042672 105.88982457 1.68359375 108.84765625 C1.66281265 109.7340831 1.64203156 110.62050995 1.62062073 111.53379822 C1.555026 114.376617 1.49619448 117.21953117 1.4375 120.0625 C1.3943242 121.98503606 1.35071022 123.90756234 1.30664062 125.83007812 C1.19933457 130.55328668 1.09809549 135.27659153 1 140 C0.34 139.67 -0.32 139.34 -1 139 C-1.03126187 128.39584475 -1.05120424 117.79169423 -1.0625 107.1875 C-1.06335602 106.38969116 -1.06421204 105.59188232 -1.06509399 104.76989746 C-1.08897528 79.5092253 -0.90862391 54.25737528 -0.5 29 C-0.48804218 28.26045956 -0.47608437 27.52091911 -0.46376419 26.75896835 C-0.31868652 17.83914209 -0.16445114 8.9194916 0 0 Z " fill="#6256ED" transform="translate(240,110)"/>
<path d="M0 0 C0.99 0 1.98 0 3 0 C3.17307616 13.16658766 3.33941261 26.33325403 3.5 39.5 C3.51187725 40.47350655 3.5237545 41.44701309 3.53599167 42.45001984 C3.93865481 75.63559741 4.13948195 108.81188012 4 142 C4.99 142.33 5.98 142.66 7 143 C5.35 143 3.7 143 2 143 C1.24410746 133.95753476 0.88700036 125.02042378 0.96875 115.94921875 C0.9801519 113.30645897 0.98978637 110.66376636 0.99609375 108.02099609 C0.99795937 107.31481675 0.99982498 106.60863741 1.00174713 105.88105869 C1.01741988 96.32239428 0.89465739 86.76486811 0.78125 77.20703125 C0.77017212 76.25848141 0.75909424 75.30993156 0.74768066 74.33263779 C0.67920339 68.48432795 0.60829592 62.63604993 0.53643799 56.78778076 C0.43960498 48.88104901 0.34576419 40.97428138 0.25218201 33.0675106 C0.21962685 30.34291595 0.18612265 27.61833429 0.15246582 24.89375305 C0.05169081 16.59550183 -0.03691763 8.2990691 0 0 Z " fill="#4880F2" transform="translate(108,109)"/>
<path d="M0 0 C0.66 0 1.32 0 2 0 C1.67 47.85 1.34 95.7 1 145 C0.34 145 -0.32 145 -1 145 C-2.01264876 137.53343085 -2.10793088 130.23721813 -2.03759766 122.70922852 C-2.02959641 121.40414841 -2.02159515 120.0990683 -2.01335144 118.75444031 C-1.99131911 115.201185 -1.96262417 111.64801321 -1.93239641 108.09481931 C-1.90157443 104.36954651 -1.87605528 100.64423662 -1.84970093 96.91893005 C-1.80464787 90.67256351 -1.75517331 84.42624355 -1.703125 78.17993164 C-1.64298429 70.9549549 -1.59025543 63.7299519 -1.54135668 56.50489098 C-1.49406799 49.54712246 -1.44124683 42.5894062 -1.38599777 35.6316967 C-1.36261378 32.67201691 -1.34124248 29.71233262 -1.32149124 26.75262642 C-1.293712 22.63002806 -1.25788142 18.50753843 -1.22119141 14.38500977 C-1.2138649 13.15334076 -1.20653839 11.92167175 -1.19898987 10.65267944 C-1.18775589 9.53543991 -1.17652191 8.41820038 -1.16494751 7.2671051 C-1.15719614 6.29247598 -1.14944477 5.31784685 -1.14145851 4.31368351 C-1 2 -1 2 0 0 Z " fill="#5073F1" transform="translate(246,107)"/>
<path d="M0 0 C0.66 0 1.32 0 2 0 C2.17840492 9.79147606 2.34383657 19.58314673 2.5 29.375 C2.51187725 30.11930771 2.5237545 30.86361542 2.53599167 31.63047791 C2.94498039 57.50432691 3.08949028 83.37307073 3.0625 109.25 C3.06164398 110.07666924 3.06078796 110.90333847 3.05990601 111.75505829 C3.04867621 121.83672945 3.02884691 131.91836325 3 142 C2.34 142 1.68 142 1 142 C0.21576263 107.26755183 -0.09429557 72.55313648 -0.0625 37.8125 C-0.06164398 36.87050625 -0.06078796 35.9285125 -0.05990601 34.95797348 C-0.04852886 23.30529598 -0.02847227 11.65264809 0 0 Z " fill="#5072F1" transform="translate(111,109)"/>
<path d="M0 0 C0.66 0 1.32 0 2 0 C2.17311618 12.85408525 2.33944782 25.70825162 2.5 38.5625 C2.51187725 39.51310806 2.5237545 40.46371613 2.53599167 41.44313049 C2.94008543 73.96429254 3.13889958 106.47612934 3 139 C2.34 139 1.68 139 1 139 C0.36714208 107.76408673 -0.14057834 76.52664091 -0.55056763 45.28704834 C-0.59977217 41.54649368 -0.65139839 37.80598422 -0.70504761 34.06549072 C-0.76873976 29.61188861 -0.82736264 25.15824812 -0.88207436 20.7045269 C-0.90327806 19.04385509 -0.926226 17.38320456 -0.95097923 15.72258186 C-0.98462148 13.44228219 -1.01193479 11.16199319 -1.03759766 8.8815918 C-1.05456696 7.59520309 -1.07153625 6.30881439 -1.08901978 4.98344421 C-1 2 -1 2 0 0 Z " fill="#339FF6" transform="translate(103,111)"/>
<path d="M0 0 C0 3 0 3 -1.53125 4.60546875 C-2.1809375 5.12753906 -2.830625 5.64960938 -3.5 6.1875 C-4.1496875 6.71730469 -4.799375 7.24710938 -5.46875 7.79296875 C-5.9740625 8.19128906 -6.479375 8.58960938 -7 9 C-5.27845212 5.23511958 -3.00765886 2.84936103 0 0 Z " fill="#12D9FC" transform="translate(57,146)"/>
<path d="" fill="#2FB8F7" transform="translate(0,0)"/>
</svg>
